<svg width="11" height="11" viewBox="0 0 11 11" fill="none" xmlns="http://www.w3.org/2000/svg">
<g id="ep:arrow-up-bold">
<path id="Vector" d="M9.47741 3.80828C9.3602 3.69111 9.20126 3.62529 9.03553 3.62529C8.86981 3.62529 8.71086 3.69111 8.59366 3.80828L5.49991 6.90203L2.40616 3.80828C2.28828 3.69443 2.13041 3.63143 1.96653 3.63286C1.80266 3.63428 1.6459 3.70001 1.53002 3.81589C1.41414 3.93177 1.34841 4.08853 1.34699 4.2524C1.34556 4.41628 1.40856 4.57415 1.52241 4.69203L5.05803 8.22765C5.17524 8.34482 5.33418 8.41064 5.49991 8.41064C5.66564 8.41064 5.82458 8.34482 5.94178 8.22765L9.47741 4.69203C9.59458 4.57482 9.6604 4.41588 9.6604 4.25015C9.6604 4.08443 9.59458 3.92548 9.47741 3.80828Z" fill="#494949"/>
</g>
</svg>
