<svg width="150" height="29" viewBox="0 0 150 29" fill="none" xmlns="http://www.w3.org/2000/svg">
<g clip-path="url(#clip0_722_2507)">
<path d="M33.7309 2.38652C32.5162 1.39018 30.6913 0.89285 28.256 0.894536H22.6484V20.3826H25.8334V13.0871H27.8565C30.3187 13.0871 32.2153 12.5459 33.5463 11.4636C34.8772 10.3813 35.5448 8.82187 35.5491 6.78535C35.5541 4.84956 34.9434 3.38413 33.7309 2.38652ZM31.1262 9.55943C30.3617 10.1276 29.1618 10.4112 27.5265 10.4104H25.8334V3.5662H28.0411C29.4926 3.5662 30.5589 3.84058 31.24 4.38932C31.9211 4.93807 32.2642 5.77425 32.2692 6.89788C32.2717 8.10495 31.8907 8.99214 31.1262 9.55943Z" fill="#FF5300"/>
<path d="M46.5884 5.37144C45.6842 5.37242 44.8006 5.64172 44.0495 6.14525C43.2487 6.67622 42.5919 7.39733 42.1378 8.24414H41.9784L41.938 5.64581H39.1121V20.3823H42.2427V12.6695C42.2427 11.3638 42.6326 10.3021 43.4123 9.48451C44.192 8.66687 45.2069 8.25847 46.4569 8.25931C46.9253 8.25635 47.3922 8.30984 47.8478 8.41862L48.1525 5.49788C47.6368 5.40242 47.1127 5.36005 46.5884 5.37144Z" fill="#FF5300"/>
<path d="M62.0974 7.43381C60.8507 6.05983 59.1607 5.37242 57.0272 5.37158C54.7985 5.37158 53.0705 6.04213 51.8432 7.38323C50.6159 8.72433 50.0018 10.5918 50.001 12.9858C50.001 14.5233 50.2863 15.8745 50.857 17.0394C51.3839 18.1556 52.2335 19.088 53.296 19.7161C54.3522 20.3391 55.5702 20.6497 56.9501 20.648C59.1527 20.648 60.8731 19.9736 62.1113 18.625C63.3496 17.2763 63.9666 15.3965 63.9624 12.9858C63.9624 10.6559 63.3408 8.80525 62.0974 7.43381ZM56.9956 18.0914C54.4828 18.0914 53.2252 16.3895 53.2227 12.9858C53.2227 11.3555 53.5177 10.1072 54.1077 9.24063C54.6995 8.36693 55.6553 7.9345 56.9703 7.9345C59.4721 7.9345 60.7252 9.62036 60.7294 12.9921C60.7344 16.3916 59.4898 18.0914 56.9956 18.0914Z" fill="#FF5300"/>
<path d="M67.5621 5.64062V22.1043C67.5621 23.6157 66.8949 24.3709 65.5606 24.3701C64.9354 24.3702 64.3128 24.2895 63.7083 24.1299V26.6093C64.3312 26.8319 65.1138 26.9427 66.0562 26.9419C67.5583 26.9419 68.7064 26.5503 69.5004 25.7672C70.2945 24.9842 70.6919 23.8344 70.6928 22.318V5.64062H67.5621Z" fill="#FF5300"/>
<path d="M87.3411 12.0247C87.3411 9.95484 86.7772 8.32503 85.6481 7.14662C84.519 5.9682 82.9815 5.37646 81.0394 5.37646C78.9405 5.37646 77.2913 6.06513 76.0918 7.44248C74.8923 8.81983 74.2917 10.7131 74.29 13.1221C74.29 15.4705 74.9378 17.3136 76.2334 18.6513C77.529 19.9891 79.3219 20.6562 81.6121 20.6529C82.5106 20.6629 83.4081 20.5884 84.2927 20.4303C85.094 20.2697 85.8721 20.0098 86.609 19.6565V17.1037C85.833 17.457 85.0236 17.7314 84.1928 17.923C83.3928 18.0964 82.5761 18.1812 81.7575 18.1759C80.4337 18.1759 79.4045 17.789 78.6775 17.019C77.9505 16.249 77.5623 15.154 77.5168 13.7202H87.3411V12.0247ZM77.5711 11.4519C77.6849 10.2406 78.0428 9.32137 78.6446 8.69423C79.2452 8.06204 80.0354 7.7472 81.0394 7.7472C82.0433 7.7472 82.8095 8.05698 83.3823 8.68538C83.9551 9.31379 84.2471 10.2317 84.2674 11.4519H77.5711Z" fill="#FF5300"/>
<path d="M94.2055 16.7891C93.5691 15.9605 93.2509 14.7184 93.2509 13.0629C93.2509 9.67689 94.5263 7.98387 97.077 7.98387C97.9418 7.98387 99.0376 8.2418 100.364 8.75768L101.311 6.23647C99.9909 5.64599 98.5575 5.35084 97.1111 5.37163C94.8175 5.37163 93.0642 6.03755 91.8512 7.36937C90.6383 8.7012 90.0314 10.6079 90.0305 13.0895C90.0305 15.5247 90.6113 17.3935 91.7729 18.6958C92.9344 19.9981 94.6291 20.6489 96.857 20.648C97.6339 20.6611 98.41 20.5912 99.1721 20.4394C99.8031 20.2976 100.408 20.0578 100.965 19.7288V16.999C99.7571 17.6808 98.3932 18.0384 97.0062 18.0371C95.7747 18.0371 94.8411 17.6211 94.2055 16.7891Z" fill="#FF5300"/>
<path d="M109.914 18.118C109.305 18.118 108.809 17.9359 108.431 17.5768C108.053 17.2178 107.862 16.6627 107.862 15.9028V8.0117H112.063V5.64096H107.862V2.35986H105.928L104.862 5.52085L102.701 5.53475V8.00538H104.716V15.9572C104.716 19.0878 106.2 20.6514 109.167 20.6481C109.738 20.6498 110.307 20.5998 110.869 20.4989C111.328 20.4232 111.776 20.296 112.207 20.1195V17.7589C111.465 17.9933 110.692 18.1144 109.914 18.118Z" fill="#FF5300"/>
<path d="M124.663 14.3501C124.366 13.8091 123.945 13.346 123.434 12.9985C122.884 12.6074 121.999 12.1767 120.779 11.7063C119.331 11.1474 118.39 10.7079 117.957 10.3875C117.53 10.0639 117.311 9.67315 117.311 9.21292C117.311 8.27136 118.138 7.79974 119.792 7.79806C120.879 7.79806 122.213 8.12554 123.805 8.78556L124.816 6.42366C123.271 5.72314 121.593 5.36432 119.897 5.37169C118.146 5.37169 116.761 5.72066 115.742 6.41861C114.723 7.11529 114.218 8.09772 114.218 9.35832C114.218 10.4052 114.518 11.2612 115.115 11.92C115.712 12.5787 116.866 13.2362 118.564 13.8912C119.261 14.1513 119.942 14.4536 120.602 14.7965C120.994 14.9924 121.35 15.2541 121.653 15.5703C121.872 15.8308 121.987 16.1631 121.977 16.5034C121.977 17.6675 121.012 18.25 119.082 18.2508C117.59 18.2508 115.975 17.85 114.245 17.0496V19.7567C115.433 20.3526 117.011 20.6498 118.977 20.6481C120.93 20.6481 122.431 20.2646 123.482 19.4975C124.534 18.7304 125.057 17.6262 125.053 16.1848C125.072 15.5509 124.938 14.9217 124.663 14.3501Z" fill="#FF5300"/>
<path d="M127.675 19.1611C127.607 19.0941 127.526 19.0423 127.436 19.0092C127.347 18.9761 127.251 18.9623 127.156 18.9689C127.064 18.9636 126.971 18.977 126.884 19.0083C126.797 19.0395 126.718 19.0881 126.65 19.1509C126.524 19.2952 126.461 19.4834 126.473 19.6744C126.461 19.8668 126.525 20.0562 126.65 20.2029C126.716 20.2688 126.795 20.32 126.882 20.3529C126.97 20.3858 127.063 20.3998 127.156 20.3938C127.251 20.3999 127.346 20.3861 127.436 20.3532C127.525 20.3203 127.607 20.2691 127.675 20.2029C127.799 20.0556 127.863 19.8667 127.852 19.6744C127.863 19.4867 127.799 19.3025 127.675 19.1611Z" fill="#FF2424"/>
<path d="M130.41 19.0019C130.188 18.7098 130.074 18.2774 130.074 17.6996C130.074 16.5119 130.52 15.9189 131.412 15.9206C131.808 15.9418 132.198 16.0325 132.564 16.1886L132.895 15.3111C132.432 15.1015 131.929 14.9975 131.421 15.0064C130.62 15.0064 130.006 15.2378 129.582 15.7069C129.159 16.176 128.95 16.8448 128.95 17.7084C128.95 18.572 129.155 19.2156 129.561 19.6707C129.967 20.1259 130.557 20.3523 131.34 20.3523C131.612 20.3571 131.883 20.333 132.15 20.2802C132.373 20.2307 132.587 20.1453 132.782 20.0273V19.0714C132.358 19.3111 131.879 19.4365 131.392 19.4356C130.963 19.4381 130.629 19.2927 130.41 19.0019Z" fill="#FF2424"/>
<path d="M137.917 15.7245C137.48 15.2466 136.889 15.0072 136.147 15.0063C135.369 15.0063 134.764 15.2428 134.331 15.7106C133.899 16.1784 133.689 16.8347 133.689 17.6679C133.679 18.1575 133.78 18.6429 133.985 19.0878C134.17 19.4785 134.468 19.8047 134.841 20.0247C135.229 20.2481 135.671 20.3613 136.119 20.3522C136.893 20.3522 137.493 20.1158 137.926 19.6429C138.358 19.17 138.572 18.5138 138.572 17.6679C138.561 16.8536 138.343 16.21 137.917 15.7245ZM136.133 19.4558C135.255 19.4558 134.815 18.8598 134.813 17.6679C134.813 17.0989 134.918 16.6627 135.123 16.3567C135.328 16.0507 135.664 15.9028 136.124 15.9028C137.002 15.9028 137.44 16.4929 137.439 17.673C137.433 18.8653 136.995 19.4558 136.127 19.4558H136.133Z" fill="#FF2424"/>
<path d="M140.868 19.1611C140.8 19.0941 140.719 19.0424 140.629 19.0092C140.54 18.9761 140.445 18.9623 140.35 18.9689C140.256 18.9634 140.162 18.9767 140.074 19.008C139.986 19.0393 139.904 19.0879 139.835 19.1509C139.772 19.2222 139.725 19.3052 139.694 19.395C139.664 19.4848 139.651 19.5798 139.658 19.6744C139.646 19.8669 139.709 20.0566 139.835 20.2029C139.978 20.326 140.16 20.3937 140.349 20.3937C140.538 20.3937 140.72 20.326 140.863 20.2029C140.991 20.0576 141.056 19.8677 141.045 19.6744C141.056 19.4867 140.992 19.3022 140.868 19.1611Z" fill="#FF2424"/>
<path d="M142.451 15.0972V20.2559H143.543V15.0972H142.451ZM143.462 13.2815C143.333 13.1783 143.173 13.1221 143.007 13.1221C142.842 13.1221 142.681 13.1783 142.552 13.2815C142.448 13.4053 142.39 13.5621 142.39 13.724C142.39 13.886 142.448 14.0427 142.552 14.1666C142.681 14.2698 142.842 14.326 143.007 14.326C143.173 14.326 143.333 14.2698 143.462 14.1666C143.564 14.0414 143.619 13.8851 143.619 13.724C143.619 13.5629 143.564 13.4067 143.462 13.2815Z" fill="#FF2424"/>
<path d="M148.399 12.9985V14.8787C148.406 15.1726 148.432 15.4656 148.477 15.7562H148.422C148.068 15.2572 147.552 15.0072 146.875 15.0064C146.224 15.0064 145.72 15.2428 145.358 15.7107C144.996 16.1785 144.807 16.8486 144.807 17.6907C144.807 18.5328 144.989 19.1877 145.348 19.6518C145.707 20.1158 146.213 20.3523 146.865 20.3523C147.544 20.3523 148.057 20.0994 148.408 19.5835H148.458L148.649 20.2574H149.509V12.9985H148.399ZM148.449 17.85C148.449 18.419 148.341 18.8325 148.131 19.0879C147.921 19.3433 147.598 19.4672 147.148 19.4672C146.97 19.4775 146.793 19.4413 146.633 19.3622C146.474 19.283 146.337 19.1636 146.238 19.0158C146.037 18.7161 145.933 18.2786 145.933 17.7097C145.933 17.1407 146.037 16.6868 146.247 16.3719C146.341 16.2239 146.472 16.1029 146.627 16.0209C146.783 15.9388 146.956 15.8986 147.132 15.9041C147.583 15.9041 147.914 16.0407 148.124 16.3138C148.338 16.5856 148.443 17.0509 148.443 17.7046L148.449 17.85Z" fill="#FF2424"/>
<path d="M69.8344 0.815918H68.5371C67.9868 0.815918 67.5408 1.262 67.5408 1.81226V3.27643C67.5408 3.82669 67.9868 4.27277 68.5371 4.27277H69.8344C70.3846 4.27277 70.8307 3.82669 70.8307 3.27643V1.81226C70.8307 1.262 70.3846 0.815918 69.8344 0.815918Z" fill="#FF5300"/>
<path d="M12.1502 2.54443H7.63631C4.56796 2.54443 2.08057 5.03183 2.08057 8.10018V13.4132C2.08057 16.4815 4.56796 18.9689 7.63631 18.9689H12.1502C15.2186 18.9689 17.706 16.4815 17.706 13.4132V8.10018C17.706 5.03183 15.2186 2.54443 12.1502 2.54443Z" stroke="#FF5300" stroke-width="3.16099" stroke-miterlimit="10"/>
<path d="M17.706 9.41992H10.045H2.08057" stroke="#FF5300" stroke-width="3.16099" stroke-miterlimit="10"/>
<path d="M10.0449 9.41992V2.54541" stroke="#FF5300" stroke-width="3.16099" stroke-miterlimit="10"/>
</g>
<defs>
<clipPath id="clip0_722_2507">
<rect width="149" height="27.3678" fill="white" transform="translate(0.5 0.815918)"/>
</clipPath>
</defs>
</svg>
